<?xml version="1.0" encoding="UTF-8"?>
<svg id="Layer_1" data-name="Layer 1" xmlns="http://www.w3.org/2000/svg" viewBox="0 0 773.38 98.49">
  <defs>
    <style>
      .cls-1 {
        fill: #454d4d;
      }

      .cls-2 {
        fill: #006a4e;
      }

      .cls-3 {
        fill: #009597;
      }

      .cls-4 {
        fill: #ed1b2f;
      }
    </style>
  </defs>
  <path class="cls-2" d="M179.56,10.46c6.01,0,12.25,1.84,17.37,5.51l-3.9,5.06c-4.17-2.89-7.68-4.51-12.97-4.51-9.18,0-16.36,5.74-16.36,14.09s7.18,14.08,16.36,14.08c5.56,0,9.24-1.72,13.69-4.73l3.9,5.07c-5.23,3.73-11.8,5.73-18.09,5.73-12.64,0-24.54-7.46-24.54-20.21s11.91-20.09,24.54-20.09"/>
  <path class="cls-2" d="M205.94,11.13h21.1c9.79,0,17.75,3.95,17.75,12.53,0,6.67-4.9,10.18-11.52,11.68l12.75,14.75h-9.74l-11.58-13.59h-10.41v13.59h-8.35V11.13Zm20.48,19.31c5.9,0,9.68-2.45,9.68-6.68s-3.62-6.4-9.74-6.4h-12.08v13.08h12.13Z"/>
  <path class="cls-2" d="M254.02,38.85V11.13h35.29v6.24h-26.94v9.4h24.71v6.07h-24.71v6.01c0,3.4,1.61,5.01,4.9,5.01h22.82v6.23h-24.82c-7.13,0-11.24-4.18-11.24-11.24M280.9,0l-6.46,6.84h-7.13l4.9-6.84h8.69Z"/>
  <path class="cls-2" d="M300.04,11.13h17.59c15.03,0,25.05,7.79,25.05,19.48s-10.02,19.48-25.05,19.48h-17.59V11.13Zm18.15,32.73c9.46,0,15.81-5.29,15.81-13.19s-6.34-13.3-15.81-13.3h-9.8v26.49h9.8Z"/>
  <rect class="cls-2" x="351.52" y="11.13" width="8.35" height="38.96"/>
  <polygon class="cls-2" points="368.17 17.37 368.17 11.13 406.46 11.13 406.46 17.37 391.49 17.37 391.49 50.09 383.14 50.09 383.14 17.37 368.17 17.37"/>
  <path class="cls-2" d="M457.71,40.69h-21.49l-4.68,9.41h-8.51l20.2-38.97h8.51l20.21,38.97h-9.57l-4.67-9.41Zm-3.06-6.07l-7.68-15.47-7.68,15.47h15.36Z"/>
  <path class="cls-2" d="M498.95,10.46c6.01,0,12.25,1.84,17.36,5.51l-3.9,5.06c-4.17-2.89-7.68-4.51-12.97-4.51-9.18,0-16.37,5.63-16.37,13.97s6.4,14.19,16.09,14.19c4.29,0,8.24-1.17,11.02-3v-7.46h-11.75v-5.96h20.09v16.37c-4.67,3.34-11.29,6.12-19.71,6.12-14.69,0-24.43-8.69-24.43-20.21,0-12.75,11.91-20.09,24.54-20.09"/>
  <path class="cls-2" d="M529.06,11.13h21.1c9.79,0,17.75,3.95,17.75,12.53,0,6.67-4.9,10.18-11.52,11.68l12.75,14.75h-9.74l-11.58-13.59h-10.41v13.59h-8.35V11.13Zm20.48,19.31c5.9,0,9.68-2.45,9.68-6.68s-3.62-6.4-9.74-6.4h-12.08v13.08h12.14Z"/>
  <rect class="cls-2" x="578.53" y="11.13" width="8.35" height="38.96"/>
  <path class="cls-2" d="M620.83,10.46c6.01,0,12.25,1.84,17.37,5.51l-3.9,5.06c-4.17-2.89-7.68-4.51-12.97-4.51-9.18,0-16.37,5.74-16.37,14.09s7.18,14.08,16.37,14.08c5.56,0,9.24-1.72,13.69-4.73l3.9,5.07c-5.23,3.73-11.8,5.73-18.09,5.73-12.63,0-24.55-7.46-24.55-20.21s11.91-20.09,24.55-20.09"/>
  <path class="cls-2" d="M641.92,30.61c0-11.02,10.24-20.15,24.66-20.15s24.66,9.13,24.66,20.15-10.24,20.15-24.66,20.15-24.66-9.13-24.66-20.15m8.69,0c0,7.85,6.51,14.09,15.97,14.09s15.98-6.24,15.98-14.09-6.51-14.08-15.98-14.08-15.97,6.23-15.97,14.08"/>
  <polygon class="cls-2" points="698.97 11.13 707.32 11.13 707.32 43.86 732.09 43.86 732.09 50.09 698.97 50.09 698.97 11.13"/>
  <path class="cls-2" d="M737.32,38.85V11.13h35.29v6.23h-26.94v9.4h24.72v6.07h-24.72v6.01c0,3.39,1.61,5.01,4.9,5.01h22.82v6.23h-24.82c-7.13,0-11.24-4.18-11.24-11.24"/>
  <rect class="cls-2" x="1.27" y="87.61" width="114.86" height="10.27"/>
  <path class="cls-2" d="M74.3,31.7l7.75,19.41,13.69-7.2-11.86-26.28h-17.26l-24.23,45.22s11.92-.37,19.55-6.12c1.93-1.14,7.37-15.42,12.35-25.03"/>
  <path class="cls-3" d="M95.74,43.9l-13.69,7.2c-11.72,5.99-22.85,11.27-28.84,12.95-15.81,4.56-35.07,7.29-41.99,1.16-6.51-5.78,8.52-29.96,36.94-35.35,4.61-1.03,7.3-.76,7.3-.73,0-.03-1.95-8.27-3.47-10.01-2.12-2.59-4.19-3.13-7.29-2.74-6.15,.36-32.32,7.34-42.65,29.15-5.76,12.39,1.9,24.89,6.86,28.52,2.3,1.68,17.16,15.01,51.53,1.54,33.86-13.14,64.19-33.82,64.22-33.82v-13.84s-13.39,7.65-28.91,15.96"/>
  <path class="cls-2" d="M86.86,63.72c1.27,2.98,4.91,11.63,5.84,14.13,1.21,2.73,4.25,2.73,4.25,2.72h15.79l-11.76-24.38c-4.31,2.41-9.06,4.97-14.12,7.53"/>
  <path class="cls-4" d="M124.66,22.55s-18.07,10.37-22.3,11.95c-3.89,1.53-5.35-.5-5.82-1.2-1.04-1.59-2.75-6.86-2.99-7.65,.1,.03,1.1,.22,3.41-.36,2.75-.7,27.68-14.63,27.7-14.62v11.9Z"/>
  <path class="cls-1" d="M163.1,98.02c-2.53,0-4.49-.69-5.86-2.08-1.37-1.38-2.06-3.33-2.06-5.84v-19.51h24.84v4.39h-18.96v6.62h17.4v4.27h-17.4v4.23c0,2.35,1.15,3.52,3.45,3.52h16.06v4.39h-17.47Z"/>
  <polygon class="cls-1" points="187.82 98.02 187.82 70.59 212.66 70.59 212.66 74.98 193.7 74.98 193.7 83.56 210.31 83.56 210.31 87.83 193.7 87.83 193.7 98.02 187.82 98.02"/>
  <polygon class="cls-1" points="219.12 98.02 219.12 70.59 225 70.59 225 93.63 242.44 93.63 242.44 98.02 219.12 98.02"/>
  <polygon class="cls-1" points="260.66 98.02 260.66 70.59 266.53 70.59 266.53 93.63 283.97 93.63 283.97 98.02 260.66 98.02"/>
  <path class="cls-1" d="M296.59,98.02c-2.53,0-4.49-.69-5.86-2.08-1.37-1.38-2.06-3.33-2.06-5.84v-19.51h24.84v4.39h-18.96v6.62h17.4v4.27h-17.4v4.23c0,2.35,1.15,3.52,3.45,3.52h16.06v4.39h-17.47Z"/>
  <path class="cls-1" d="M343.17,91.39h-15.12l-3.29,6.62h-5.99l14.22-27.43h5.99l14.22,27.43h-6.74l-3.29-6.62Zm-13.01-4.27h10.85l-5.41-10.89-5.45,10.89Z"/>
  <path class="cls-1" d="M372.17,98.49c-1.41,0-2.82-.11-4.23-.31-1.41-.21-2.78-.5-4.1-.86-1.32-.37-2.58-.82-3.78-1.35-1.2-.53-2.31-1.14-3.33-1.82l2.74-3.96c1.8,1.33,3.83,2.3,6.07,2.92,2.25,.61,4.43,.92,6.54,.92,1.1,0,2.12-.08,3.08-.23,.95-.16,1.79-.38,2.51-.67,.72-.29,1.29-.63,1.7-1.04,.42-.4,.63-.87,.63-1.39s-.23-.98-.68-1.37c-.46-.39-1.08-.73-1.86-1.02-.78-.29-1.69-.55-2.72-.8-1.03-.25-2.11-.49-3.23-.72-1.57-.34-3.16-.7-4.78-1.1-1.62-.39-3.1-.9-4.43-1.53-1.33-.63-2.42-1.4-3.25-2.31-.84-.91-1.25-2.06-1.25-3.45,0-1.28,.36-2.43,1.1-3.45,.73-1.02,1.72-1.89,2.98-2.61,1.25-.72,2.7-1.27,4.35-1.65,1.65-.38,3.37-.57,5.17-.57,1.25,0,2.51,.08,3.76,.25,1.25,.17,2.47,.43,3.66,.76,1.19,.34,2.34,.76,3.45,1.25,1.11,.5,2.14,1.06,3.08,1.69l-2.74,3.96c-1.57-1.17-3.33-2.06-5.27-2.64-1.94-.59-3.88-.88-5.82-.88-.99,0-1.94,.07-2.86,.22-.91,.14-1.73,.35-2.45,.63-.72,.27-1.29,.61-1.73,1-.43,.39-.64,.84-.64,1.33s.21,.87,.63,1.2c.42,.33,.98,.62,1.7,.88,.72,.26,1.56,.5,2.53,.72,.96,.22,1.98,.44,3.06,.65,1.59,.31,3.23,.67,4.92,1.08,1.68,.41,3.23,.94,4.62,1.59,1.4,.65,2.54,1.48,3.43,2.47,.89,.99,1.33,2.23,1.33,3.72,0,1.36-.38,2.57-1.13,3.62-.76,1.06-1.77,1.95-3.04,2.66-1.27,.72-2.74,1.27-4.43,1.65-1.69,.38-3.44,.57-5.27,.57"/>
  <rect class="cls-1" x="392.31" y="70.59" width="5.88" height="27.43"/>
  <polygon class="cls-1" points="429.09 98.02 412.28 78.46 412.28 98.02 406.41 98.02 406.41 70.59 412.28 70.59 429.09 90.1 429.09 70.59 434.97 70.59 434.97 98.02 429.09 98.02"/>
  <path class="cls-1" d="M441.44,84.26c0-2.25,.48-4.24,1.45-6,.96-1.75,2.25-3.23,3.86-4.45,1.6-1.21,3.45-2.14,5.52-2.76,2.08-.63,4.23-.94,6.45-.94s4.23,.32,6.35,.96c2.12,.64,4.07,1.62,5.88,2.92l-2.74,3.57c-1.46-1.02-2.88-1.8-4.27-2.35-1.38-.55-3-.82-4.86-.82-1.62,0-3.13,.24-4.52,.71-1.4,.47-2.62,1.14-3.66,2-1.04,.86-1.86,1.9-2.45,3.11-.59,1.21-.88,2.55-.88,4.02s.27,2.8,.8,4.02c.54,1.21,1.3,2.27,2.29,3.16,.99,.89,2.19,1.58,3.59,2.08,1.4,.5,2.94,.74,4.64,.74,1.51,0,2.94-.19,4.27-.57,1.33-.38,2.49-.89,3.49-1.55v-5.25h-8.27v-4.19h14.15v11.52c-1.65,1.18-3.62,2.19-5.94,3.04-2.31,.85-4.96,1.27-7.93,1.27-2.58,0-4.94-.36-7.05-1.08-2.11-.72-3.92-1.72-5.43-3-1.5-1.28-2.66-2.78-3.49-4.51-.82-1.72-1.23-3.6-1.23-5.64"/>
</svg>